<svg xmlns="http://www.w3.org/2000/svg" viewBox="0 0 1200 628" width="1200" height="628">
  <defs>
    <linearGradient id="bg" x1="0" y1="0" x2="1" y2="0">
      <stop offset="0%" stop-color="#1e3a8a"/>
      <stop offset="50%" stop-color="#1d4ed8"/>
      <stop offset="100%" stop-color="#2563eb"/>
    </linearGradient>
  </defs>
  <rect width="1200" height="628" fill="url(#bg)"/>

  <!-- Left: text content -->
  <text x="80" y="90" font-family="Arial, sans-serif" font-size="22" font-weight="700" fill="white" opacity="0.7">ResumeTailored AI</text>
  <text x="80" y="180" font-family="Arial, sans-serif" font-size="68" font-weight="900" fill="white">Your resume,</text>
  <text x="80" y="258" font-family="Arial, sans-serif" font-size="68" font-weight="900" fill="#93c5fd">perfectly tailored.</text>
  <text x="80" y="330" font-family="Arial, sans-serif" font-size="24" fill="white" opacity="0.8">Paste resume + job posting.</text>
  <text x="80" y="362" font-family="Arial, sans-serif" font-size="24" fill="white" opacity="0.8">AI rewrites it in 30 seconds.</text>

  <!-- Stats -->
  <rect x="80" y="400" width="180" height="80" rx="14" fill="white" opacity="0.12"/>
  <text x="170" y="435" text-anchor="middle" font-family="Arial, sans-serif" font-size="32" font-weight="900" fill="white">3×</text>
  <text x="170" y="462" text-anchor="middle" font-family="Arial, sans-serif" font-size="14" fill="white" opacity="0.8">more interviews</text>

  <rect x="276" y="400" width="180" height="80" rx="14" fill="white" opacity="0.12"/>
  <text x="366" y="435" text-anchor="middle" font-family="Arial, sans-serif" font-size="32" font-weight="900" fill="white">30s</text>
  <text x="366" y="462" text-anchor="middle" font-family="Arial, sans-serif" font-size="14" fill="white" opacity="0.8">per application</text>

  <rect x="472" y="400" width="180" height="80" rx="14" fill="white" opacity="0.12"/>
  <text x="562" y="435" text-anchor="middle" font-family="Arial, sans-serif" font-size="32" font-weight="900" fill="white">Free</text>
  <text x="562" y="462" text-anchor="middle" font-family="Arial, sans-serif" font-size="14" fill="white" opacity="0.8">to start</text>

  <!-- CTA button -->
  <rect x="80" y="516" width="340" height="68" rx="14" fill="white"/>
  <text x="250" y="558" text-anchor="middle" font-family="Arial, sans-serif" font-size="24" font-weight="900" fill="#2563eb">Try Free — resumetailored.com</text>

  <!-- Right: resume mockup -->
  <rect x="760" y="40" width="400" height="548" rx="16" fill="white" opacity="0.95"/>
  <rect x="760" y="40" width="400" height="80" rx="16" fill="#2563eb"/>
  <rect x="760" y="100" width="400" height="20" fill="#2563eb"/>
  <text x="960" y="92" text-anchor="middle" font-family="Arial, sans-serif" font-size="20" font-weight="900" fill="white">AI-Tailored Resume</text>
  <rect x="785" y="146" width="200" height="14" rx="7" fill="#e5e7eb"/>
  <rect x="785" y="170" width="350" height="10" rx="5" fill="#bfdbfe"/>
  <rect x="785" y="188" width="320" height="10" rx="5" fill="#dbeafe"/>
  <rect x="785" y="206" width="300" height="10" rx="5" fill="#dbeafe"/>
  <rect x="785" y="236" width="180" height="12" rx="6" fill="#e5e7eb"/>
  <rect x="785" y="258" width="350" height="10" rx="5" fill="#bfdbfe"/>
  <rect x="785" y="276" width="340" height="10" rx="5" fill="#dbeafe"/>
  <rect x="785" y="294" width="310" height="10" rx="5" fill="#dbeafe"/>
  <rect x="785" y="314" width="290" height="10" rx="5" fill="#dbeafe"/>
  <rect x="785" y="344" width="180" height="12" rx="6" fill="#e5e7eb"/>
  <rect x="785" y="366" width="350" height="10" rx="5" fill="#bfdbfe"/>
  <rect x="785" y="384" width="330" height="10" rx="5" fill="#dbeafe"/>
  <rect x="785" y="402" width="300" height="10" rx="5" fill="#dbeafe"/>
  <rect x="785" y="540" width="350" height="36" rx="10" fill="#dcfce7"/>
  <text x="960" y="564" text-anchor="middle" font-family="Arial, sans-serif" font-size="16" font-weight="700" fill="#16a34a">✅ 97% ATS Match Score</text>
</svg>
