<svg xmlns="http://www.w3.org/2000/svg" viewBox="0 0 1280 720" width="1280" height="720">
  <defs>
    <linearGradient id="bg" x1="0" y1="0" x2="1" y2="1">
      <stop offset="0%" stop-color="#0f0f1a"/>
      <stop offset="100%" stop-color="#1e3a8a"/>
    </linearGradient>
  </defs>
  <rect width="1280" height="720" fill="url(#bg)"/>

  <!-- Dramatic stat: 0 callbacks -->
  <text x="80" y="160" font-family="Arial, sans-serif" font-size="44" font-weight="900" fill="#ef4444">0 callbacks.</text>
  <text x="80" y="240" font-family="Arial, sans-serif" font-size="44" font-weight="900" fill="#ef4444">0 interviews.</text>
  <text x="80" y="316" font-family="Arial, sans-serif" font-size="36" fill="#9ca3af">Until I tried this AI tool...</text>

  <!-- Arrow divider -->
  <text x="80" y="400" font-family="Arial, sans-serif" font-size="60" fill="#2563eb">↓</text>

  <!-- Success stat -->
  <text x="80" y="500" font-family="Arial, sans-serif" font-size="72" font-weight="900" fill="white">3 interviews</text>
  <text x="80" y="580" font-family="Arial, sans-serif" font-size="44" font-weight="900" fill="#60a5fa">in one week.</text>

  <!-- Right side: resume mockup card -->
  <rect x="760" y="60" width="460" height="600" rx="20" fill="white" opacity="0.06" stroke="#2563eb" stroke-width="2"/>
  <rect x="760" y="60" width="460" height="72" rx="20" fill="#2563eb" opacity="0.8"/>
  <rect x="760" y="112" width="460" height="20" fill="#2563eb" opacity="0.8"/>
  <text x="990" y="106" text-anchor="middle" font-family="Arial, sans-serif" font-size="22" font-weight="900" fill="white">AI-Tailored Resume</text>
  <rect x="790" y="154" width="380" height="12" rx="6" fill="#3b82f6" opacity="0.6"/>
  <rect x="790" y="176" width="360" height="10" rx="5" fill="#60a5fa" opacity="0.5"/>
  <rect x="790" y="196" width="340" height="10" rx="5" fill="#60a5fa" opacity="0.4"/>
  <rect x="790" y="228" width="200" height="14" rx="7" fill="#3b82f6" opacity="0.5"/>
  <rect x="790" y="252" width="380" height="10" rx="5" fill="#60a5fa" opacity="0.5"/>
  <rect x="790" y="272" width="360" height="10" rx="5" fill="#60a5fa" opacity="0.4"/>
  <rect x="790" y="292" width="320" height="10" rx="5" fill="#60a5fa" opacity="0.4"/>
  <rect x="790" y="324" width="200" height="14" rx="7" fill="#3b82f6" opacity="0.5"/>
  <rect x="790" y="348" width="380" height="10" rx="5" fill="#60a5fa" opacity="0.5"/>
  <rect x="790" y="368" width="350" height="10" rx="5" fill="#60a5fa" opacity="0.4"/>
  <rect x="790" y="600" width="400" height="42" rx="12" fill="#22c55e" opacity="0.2" stroke="#22c55e" stroke-width="1"/>
  <text x="990" y="627" text-anchor="middle" font-family="Arial, sans-serif" font-size="18" font-weight="700" fill="#22c55e">✅ 97% ATS Match</text>

  <!-- Branding bottom -->
  <text x="80" y="680" font-family="Arial, sans-serif" font-size="26" font-weight="700" fill="white" opacity="0.5">resumetailored.com · Free to start</text>
</svg>
