<svg xmlns="http://www.w3.org/2000/svg" viewBox="0 0 1200 644" width="1200" height="644">
  <defs>
    <linearGradient id="bg" x1="0%" y1="0%" x2="100%" y2="100%">
      <stop offset="0%" stop-color="#07070f"/>
      <stop offset="50%" stop-color="#1e1b4b"/>
      <stop offset="100%" stop-color="#1e3a8a"/>
    </linearGradient>
    <linearGradient id="goldLine" x1="0%" y1="0%" x2="100%" y2="0%">
      <stop offset="0%" stop-color="#f5c842"/>
      <stop offset="100%" stop-color="rgba(245,200,66,0)"/>
    </linearGradient>
  </defs>

  <rect width="1200" height="644" fill="url(#bg)"/>
  <!-- Grid lines decorative -->
  <line x1="0" y1="160" x2="1200" y2="160" stroke="rgba(255,255,255,0.04)" stroke-width="1"/>
  <line x1="0" y1="320" x2="1200" y2="320" stroke="rgba(255,255,255,0.04)" stroke-width="1"/>
  <line x1="0" y1="480" x2="1200" y2="480" stroke="rgba(255,255,255,0.04)" stroke-width="1"/>
  <line x1="300" y1="0" x2="300" y2="644" stroke="rgba(255,255,255,0.03)" stroke-width="1"/>
  <line x1="600" y1="0" x2="600" y2="644" stroke="rgba(255,255,255,0.03)" stroke-width="1"/>
  <line x1="900" y1="0" x2="900" y2="644" stroke="rgba(255,255,255,0.03)" stroke-width="1"/>

  <!-- Gold accent line -->
  <rect x="60" y="70" width="200" height="4" rx="2" fill="url(#goldLine)"/>

  <!-- Tag -->
  <rect x="60" y="84" width="150" height="32" rx="16" fill="rgba(245,200,66,0.15)" stroke="rgba(245,200,66,0.4)" stroke-width="1"/>
  <text x="135" y="105" font-family="Arial,sans-serif" font-weight="700" font-size="13" fill="#f5c842" text-anchor="middle">AI &amp; CAREERS</text>

  <!-- Headline -->
  <text x="60" y="210" font-family="Arial,sans-serif" font-weight="900" font-size="76" fill="white" letter-spacing="-3">The AI Resume</text>
  <text x="60" y="298" font-family="Arial,sans-serif" font-weight="900" font-size="76" fill="#f5c842" letter-spacing="-3">Revolution</text>
  <text x="60" y="386" font-family="Arial,sans-serif" font-weight="500" font-size="26" fill="rgba(255,255,255,0.6)">What every job seeker needs to know in 2026</text>

  <!-- Feature pills -->
  <rect x="60" y="440" width="182" height="42" rx="21" fill="rgba(37,99,235,0.3)" stroke="rgba(37,99,235,0.6)" stroke-width="1"/>
  <text x="151" y="466" font-family="Arial,sans-serif" font-weight="700" font-size="15" fill="#93c5fd" text-anchor="middle">⚡ 30-Second Tailor</text>

  <rect x="256" y="440" width="160" height="42" rx="21" fill="rgba(37,99,235,0.3)" stroke="rgba(37,99,235,0.6)" stroke-width="1"/>
  <text x="336" y="466" font-family="Arial,sans-serif" font-weight="700" font-size="15" fill="#93c5fd" text-anchor="middle">🎯 97% ATS Rate</text>

  <rect x="430" y="440" width="172" height="42" rx="21" fill="rgba(37,99,235,0.3)" stroke="rgba(37,99,235,0.6)" stroke-width="1"/>
  <text x="516" y="466" font-family="Arial,sans-serif" font-weight="700" font-size="15" fill="#93c5fd" text-anchor="middle">📄 100+ Templates</text>

  <!-- Right side AI visual -->
  <rect x="780" y="80" width="370" height="470" rx="24" fill="rgba(255,255,255,0.04)" stroke="rgba(255,255,255,0.1)" stroke-width="1"/>

  <!-- AI badge center -->
  <circle cx="965" cy="230" r="70" fill="rgba(37,99,235,0.25)" stroke="#2563eb" stroke-width="2"/>
  <text x="965" y="222" font-family="Arial,sans-serif" font-weight="900" font-size="38" fill="white" text-anchor="middle">AI</text>
  <text x="965" y="252" font-family="Arial,sans-serif" font-weight="600" font-size="14" fill="rgba(255,255,255,0.6)" text-anchor="middle">Claude AI</text>

  <!-- Orbiting items -->
  <rect x="820" y="120" width="90" height="30" rx="15" fill="rgba(255,255,255,0.08)"/>
  <text x="865" y="140" font-family="Arial,sans-serif" font-size="12" fill="rgba(255,255,255,0.6)" text-anchor="middle">Resume ✓</text>

  <rect x="1000" y="120" width="110" height="30" rx="15" fill="rgba(255,255,255,0.08)"/>
  <text x="1055" y="140" font-family="Arial,sans-serif" font-size="12" fill="rgba(255,255,255,0.6)" text-anchor="middle">Cover Letter ✓</text>

  <rect x="800" y="310" width="100" height="30" rx="15" fill="rgba(255,255,255,0.08)"/>
  <text x="850" y="330" font-family="Arial,sans-serif" font-size="12" fill="rgba(255,255,255,0.6)" text-anchor="middle">LinkedIn ✓</text>

  <rect x="1010" y="310" width="100" height="30" rx="15" fill="rgba(255,255,255,0.08)"/>
  <text x="1060" y="330" font-family="Arial,sans-serif" font-size="12" fill="rgba(255,255,255,0.6)" text-anchor="middle">DOCX Export ✓</text>

  <!-- Stats below -->
  <rect x="800" y="370" width="330" height="80" rx="12" fill="rgba(37,99,235,0.2)"/>
  <text x="965" y="406" font-family="Arial,sans-serif" font-weight="900" font-size="22" fill="white" text-anchor="middle">3× More Interviews</text>
  <text x="965" y="432" font-family="Arial,sans-serif" font-size="14" fill="rgba(255,255,255,0.55)" text-anchor="middle">reported by ResumeTailored AI users</text>

  <rect x="800" y="464" width="330" height="60" rx="12" fill="rgba(245,200,66,0.12)"/>
  <text x="965" y="492" font-family="Arial,sans-serif" font-weight="700" font-size="16" fill="#f5c842" text-anchor="middle">Start Free · resumetailored.com</text>
  <text x="965" y="513" font-family="Arial,sans-serif" font-size="13" fill="rgba(255,255,255,0.4)" text-anchor="middle">No credit card required</text>

  <!-- Bottom logo bar -->
  <rect x="0" y="580" width="1200" height="64" fill="rgba(255,255,255,0.03)" stroke-top="rgba(255,255,255,0.08)"/>
  <rect x="0" y="580" width="1200" height="1" fill="rgba(255,255,255,0.08)"/>
  <rect x="60" y="600" width="30" height="30" rx="7" fill="#2563eb"/>
  <text x="75" y="621" font-family="Arial,sans-serif" font-weight="900" font-size="16" fill="white" text-anchor="middle">R</text>
  <text x="104" y="620" font-family="Arial,sans-serif" font-weight="800" font-size="14" fill="white">ResumeTailored AI</text>
  <text x="1140" y="620" font-family="Arial,sans-serif" font-size="14" fill="rgba(255,255,255,0.35)" text-anchor="end">resumetailored.com</text>
</svg>
