<svg xmlns="http://www.w3.org/2000/svg" viewBox="0 0 1080 1080" width="1080" height="1080">
  <defs>
    <linearGradient id="bg" x1="0%" y1="0%" x2="100%" y2="100%">
      <stop offset="0%" stop-color="#07070f"/>
      <stop offset="100%" stop-color="#0f172a"/>
    </linearGradient>
    <linearGradient id="step1" x1="0%" y1="0%" x2="100%" y2="100%">
      <stop offset="0%" stop-color="#1e40af"/>
      <stop offset="100%" stop-color="#2563eb"/>
    </linearGradient>
  </defs>

  <rect width="1080" height="1080" fill="url(#bg)"/>
  <circle cx="900" cy="150" r="280" fill="rgba(37,99,235,0.08)"/>
  <circle cx="150" cy="950" r="200" fill="rgba(245,200,66,0.05)"/>

  <!-- Logo -->
  <rect x="72" y="72" width="48" height="48" rx="12" fill="#2563eb"/>
  <text x="96" y="105" font-family="Arial,sans-serif" font-weight="900" font-size="26" fill="white" text-anchor="middle">R</text>
  <text x="134" y="103" font-family="Arial,sans-serif" font-weight="800" font-size="17" fill="white">ResumeTailored</text>
  <rect x="316" y="82" width="30" height="20" rx="5" fill="rgba(255,255,255,0.2)"/>
  <text x="331" y="96" font-family="Arial,sans-serif" font-weight="800" font-size="11" fill="white" text-anchor="middle">AI</text>

  <!-- Headline -->
  <text x="540" y="188" font-family="Arial,sans-serif" font-weight="900" font-size="58" fill="white" text-anchor="middle" letter-spacing="-1">三步搞定完美简历</text>
  <text x="540" y="234" font-family="Arial,sans-serif" font-size="22" fill="rgba(255,255,255,0.5)" text-anchor="middle">从投递到面试，就这么简单</text>

  <!-- Step 1 -->
  <rect x="72" y="278" width="936" height="180" rx="20" fill="rgba(255,255,255,0.04)" stroke="rgba(255,255,255,0.08)" stroke-width="1"/>
  <rect x="72" y="278" width="8" height="180" rx="4" fill="#2563eb"/>
  <!-- Number bubble -->
  <circle cx="130" cy="368" r="36" fill="#2563eb"/>
  <text x="130" y="377" font-family="Arial,sans-serif" font-weight="900" font-size="28" fill="white" text-anchor="middle">1</text>
  <!-- Content -->
  <text x="194" y="340" font-family="Arial,sans-serif" font-weight="900" font-size="32" fill="white">复制职位描述</text>
  <text x="194" y="374" font-family="Arial,sans-serif" font-size="20" fill="rgba(255,255,255,0.55)">打开Boss直聘 / 猎聘 / 智联招聘，找到心仪职位</text>
  <text x="194" y="404" font-family="Arial,sans-serif" font-size="20" fill="rgba(255,255,255,0.55)">复制整个职位说明文字</text>
  <!-- Icon -->
  <rect x="888" y="320" width="88" height="96" rx="12" fill="rgba(37,99,235,0.2)" stroke="#2563eb" stroke-width="1"/>
  <text x="932" y="378" font-family="Arial,sans-serif" font-size="44" text-anchor="middle">📋</text>

  <!-- Arrow down -->
  <text x="540" y="506" font-family="Arial,sans-serif" font-size="36" fill="#2563eb" text-anchor="middle">↓</text>

  <!-- Step 2 -->
  <rect x="72" y="524" width="936" height="180" rx="20" fill="rgba(255,255,255,0.04)" stroke="rgba(255,255,255,0.08)" stroke-width="1"/>
  <rect x="72" y="524" width="8" height="180" rx="4" fill="#f5c842"/>
  <circle cx="130" cy="614" r="36" fill="#f5c842"/>
  <text x="130" y="623" font-family="Arial,sans-serif" font-weight="900" font-size="28" fill="#07070f" text-anchor="middle">2</text>
  <text x="194" y="586" font-family="Arial,sans-serif" font-weight="900" font-size="32" fill="white">粘贴到 ResumeTailored AI</text>
  <text x="194" y="620" font-family="Arial,sans-serif" font-size="20" fill="rgba(255,255,255,0.55)">打开 resumetailored.com，粘贴职位描述</text>
  <text x="194" y="650" font-family="Arial,sans-serif" font-size="20" fill="rgba(255,255,255,0.55)">上传你的现有简历（或直接粘贴文字）</text>
  <rect x="888" y="566" width="88" height="96" rx="12" fill="rgba(245,200,66,0.15)" stroke="#f5c842" stroke-width="1"/>
  <text x="932" y="624" font-family="Arial,sans-serif" font-size="44" text-anchor="middle">🤖</text>

  <!-- Arrow down -->
  <text x="540" y="752" font-family="Arial,sans-serif" font-size="36" fill="#4ade80" text-anchor="middle">↓</text>

  <!-- Step 3 -->
  <rect x="72" y="770" width="936" height="180" rx="20" fill="rgba(74,222,128,0.06)" stroke="rgba(74,222,128,0.2)" stroke-width="1"/>
  <rect x="72" y="770" width="8" height="180" rx="4" fill="#4ade80"/>
  <circle cx="130" cy="860" r="36" fill="#4ade80"/>
  <text x="130" y="869" font-family="Arial,sans-serif" font-weight="900" font-size="28" fill="#07070f" text-anchor="middle">3</text>
  <text x="194" y="832" font-family="Arial,sans-serif" font-weight="900" font-size="32" fill="white">30秒后下载完美简历</text>
  <text x="194" y="866" font-family="Arial,sans-serif" font-size="20" fill="rgba(255,255,255,0.55)">AI自动优化关键词，匹配岗位要求</text>
  <text x="194" y="896" font-family="Arial,sans-serif" font-size="20" fill="rgba(74,222,128,0.8)">✓ 97% ATS通过率  ✓ 3× 面试邀请</text>
  <rect x="888" y="812" width="88" height="96" rx="12" fill="rgba(74,222,128,0.15)" stroke="#4ade80" stroke-width="1"/>
  <text x="932" y="870" font-family="Arial,sans-serif" font-size="44" text-anchor="middle">📄</text>

  <!-- CTA -->
  <text x="540" y="1010" font-family="Arial,sans-serif" font-weight="700" font-size="20" fill="rgba(255,255,255,0.35)" text-anchor="middle">resumetailored.com · 每日免费 · 无需信用卡</text>
</svg>
